<svg width="908" height="127" viewBox="0 0 908 127" fill="none" xmlns="http://www.w3.org/2000/svg">
<path d="M122.06 100.3L120.02 92.82L93.67 18.19L107.44 7.81999H61.03L69.53 17.51L81.77 50.15L62.39 99.11L60.69 92.82L32.81 18.19L46.41 7.81999H0L8.84 17.85L51 126.31H61.37L85.51 60.18L110.16 126.31H120.53L156.91 22.44L168.47 7.81999H132.94L147.56 22.61L122.06 100.3Z" fill="black"/>
<path d="M177.2 15.64L191.82 31.45L206.27 15.64L191.82 0L177.2 15.64ZM170.57 50.66L182.13 63.75V109.65L169.55 124.27H215.11L202.53 109.65V39.27L170.57 50.66Z" fill="black"/>
<path d="M322.611 124.27L309.691 109.65V66.13C309.691 50.15 301.531 38.93 284.191 38.93C273.991 38.93 262.941 44.2 256.141 54.74V39.27L224.181 50.66L235.741 63.75V109.65L222.821 124.27H268.381L256.141 109.65V60.52C261.581 53.21 268.041 50.49 274.331 50.49C287.421 50.49 289.291 58.82 289.291 71.91V109.65L277.051 124.27H322.611Z" fill="black"/>
<path d="M359.323 16.83L327.703 40.97L338.923 51.68V100.13C338.923 119.51 348.953 126.31 360.683 126.31C374.453 126.31 383.633 119.34 391.793 105.57L389.753 102.85C386.013 110.16 378.193 112.71 373.093 112.71C363.063 112.71 359.323 108.29 359.323 91.97V50.15H388.223L391.963 40.97H359.323V16.83Z" fill="black"/>
<path d="M475.76 76.16H475.93L475.76 75.82C475.59 52.87 463.18 39.27 442.95 39.27C415.24 39.27 401.64 64.43 401.64 86.36C401.64 106.76 414.22 126.65 436.49 126.65C456.72 126.65 468.79 111.01 474.91 95.54L472.36 94.52C469.81 101.66 459.61 107.44 448.05 107.44C434.79 107.44 423.06 98.26 421.19 76.33H475.76V76.16ZM453.83 71.23H420.85V70.04C420.85 59.84 426.12 44.37 439.04 44.37C446.52 44.37 453.83 51.51 453.83 69.7V71.23Z" fill="black"/>
<path d="M556.711 71.06V40.97H486.331L497.891 54.06V109.65L485.311 124.27H534.101L518.291 109.65V73.1C518.291 55.76 518.292 47.26 530.021 47.26C537.841 47.26 547.871 53.21 555.351 71.06H556.711Z" fill="black"/>
<path d="M575.235 109.65L562.655 124.27H608.215L595.635 109.65V3.57L563.675 13.26L575.235 26.35V32.81L563.675 36.38L575.235 49.47V109.65Z" fill="black"/>
<path d="M665.78 124.27H698.93L686.35 113.22H686.18V55.59L689.92 40.97H619.88V68.17H621.07C629.74 55.25 637.9 45.73 651.5 45.73C665.44 45.73 665.78 56.27 665.78 69.87C636.37 80.24 615.8 89.08 615.8 106.42C615.8 120.19 624.47 125.97 636.2 125.97C647.42 125.97 659.32 116.28 665.78 109.99V124.27ZM665.78 105.4C661.53 109.82 656.26 112.54 650.99 112.54C643.85 112.54 638.24 108.97 638.24 100.81C638.24 92.65 639.09 85.34 665.78 74.63V105.4Z" fill="black"/>
<path d="M805.55 124.27L792.63 109.65V66.13C792.63 50.15 784.47 38.93 767.13 38.93C756.93 38.93 745.88 44.2 739.08 54.74V39.27L707.12 50.66L718.68 63.75V109.65L705.76 124.27H751.32L739.08 109.65V60.52C744.52 53.21 750.98 50.49 757.27 50.49C770.36 50.49 772.23 58.82 772.23 71.91V109.65L759.99 124.27H805.55Z" fill="black"/>
<path d="M874.052 125.8L907.032 124.27L894.452 112.37V3.57L862.492 13.26L874.052 26.35V40.97H859.772C828.832 40.97 814.892 64.09 814.892 86.02C814.892 106.42 825.772 125.97 848.042 125.97C861.132 125.97 868.952 117.98 874.052 109.14V125.8ZM874.052 103.02C870.822 105.57 867.252 107.27 861.302 107.27C846.852 107.27 835.122 97.07 835.122 70.55C835.122 60.35 838.182 46.92 853.142 46.92C861.982 46.92 868.952 51.85 874.052 57.29V103.02Z" fill="black"/>
<path d="M541.19 90.2594L546.79 77.27L552.39 90.2594L562.79 95.77L552.39 101.281L546.79 114.27L541.19 101.281L530.79 95.77L541.19 90.2594Z" fill="black"/>
</svg>
