<svg width="282" height="35" viewBox="0 0 282 35" fill="none" xmlns="http://www.w3.org/2000/svg">
<path d="M11.328 29C21.408 29 24.672 26.024 24.672 22.232C24.672 19.496 22.272 17.144 17.52 16.088C20.064 14.888 21.504 12.968 21.504 10.568C21.504 6.68 17.712 3.848 11.328 3.848H6.096C3.744 3.848 1.968 3.752 1.296 3.752C0.96 3.752 0.72 3.944 0.72 4.184C0.72 4.424 0.912 4.664 1.344 4.76C2.016 4.952 2.304 5.192 2.304 5.864V26.984C2.304 27.656 2.016 27.896 1.344 28.04C0.912 28.184 0.72 28.376 0.72 28.664C0.72 28.904 0.96 29.096 1.296 29.096C1.968 29.096 3.744 29 6.096 29H11.328ZM11.664 17.24C14.64 17.24 17.088 18.872 17.088 22.232C17.088 25.544 14.64 27.176 11.664 27.176H11.088C10.224 27.176 9.888 26.84 9.888 25.736V17.24H11.664ZM9.888 7.112C9.888 6.008 10.224 5.624 11.088 5.624H11.184C13.488 5.624 15.408 7.496 15.408 10.568C15.408 13.592 13.584 15.368 11.328 15.464H9.888V7.112ZM34.7663 26.984V16.088C36.0143 14.84 37.2143 13.976 37.9343 13.976C38.7023 13.976 39.0863 14.312 39.8543 15.32C40.9583 16.664 41.3423 17 41.8703 17C42.9743 17 45.0863 15.896 45.0863 13.16C45.0863 10.808 43.5503 8.888 41.2943 8.888C38.7503 8.888 37.0223 11.096 34.7663 14.264V13.064C34.7663 10.088 34.7663 9.368 34.2383 9.368C33.6143 9.368 32.7983 9.8 30.7823 10.52C28.9103 11.24 27.4223 11.528 26.4623 11.672C26.1263 11.72 25.8863 11.912 25.8863 12.152C25.8863 12.392 26.0783 12.632 26.5103 12.728C26.9423 12.872 27.4703 13.208 27.4703 13.832V26.984C27.4703 27.656 27.1823 27.848 26.5103 28.088C26.0783 28.184 25.8863 28.424 25.8863 28.664C25.8863 28.904 26.1263 29.096 26.4623 29.096C27.1343 29.096 28.7663 29 31.1183 29C33.4703 29 35.1023 29.096 35.7263 29.096C36.1103 29.096 36.3503 28.904 36.3503 28.664C36.3503 28.424 36.1583 28.184 35.7263 28.088C35.0063 27.848 34.7663 27.656 34.7663 26.984ZM54.1725 10.472C54.1725 9.848 54.1725 9.368 53.6445 9.368C52.9725 9.368 52.4925 9.848 50.4765 10.52C48.6045 11.192 46.8765 11.528 45.9165 11.672C45.5325 11.72 45.2925 11.912 45.2925 12.152C45.2925 12.392 45.4845 12.632 45.9165 12.728C46.3485 12.872 46.8765 13.208 46.8765 13.832V26.984C46.8765 27.656 46.6365 27.848 45.9165 28.088C45.4845 28.184 45.2925 28.424 45.2925 28.664C45.2925 28.904 45.5325 29.096 45.9165 29.096C46.5405 29.096 48.1725 29 50.5245 29C52.8765 29 54.5565 29.096 55.1805 29.096C55.5165 29.096 55.7565 28.904 55.7565 28.664C55.7565 28.424 55.5645 28.184 55.1325 28.088C54.4605 27.848 54.1725 27.656 54.1725 26.984V10.472ZM54.8925 4.376C54.8925 2.024 52.7325 0.344 50.3325 0.344C47.9805 0.344 45.8205 2.024 45.8205 4.376C45.8205 6.728 47.9805 8.408 50.3325 8.408C52.7325 8.408 54.8925 6.728 54.8925 4.376ZM74.6933 23.48C74.6933 20.744 73.3013 18.68 67.7333 16.232C64.4693 14.84 63.2213 14.216 63.2213 12.488C63.2213 11.384 64.0853 10.52 65.5253 10.52C66.8693 10.52 67.5893 11.432 67.7333 13.016C67.8773 15.128 69.0293 15.992 70.7573 15.992C73.3013 15.992 74.4533 14.6 73.9253 12.536C73.3493 10.424 70.3253 8.888 66.1973 8.888C61.4453 8.888 57.4133 11.192 57.4133 14.84C57.4133 18.104 59.8133 19.592 63.7973 21.32C67.3013 22.808 68.2613 24.152 68.2613 25.4C68.2613 26.888 67.1093 27.8 65.7653 27.8C64.3733 27.8 63.1253 27.32 62.8853 24.824C62.5973 22.424 61.5413 21.176 59.6693 21.176C57.0293 21.176 55.7812 23.192 56.5013 25.352C57.3652 28.136 60.8213 29.432 65.4773 29.432C71.8133 29.432 74.6933 26.6 74.6933 23.48ZM86.9475 11C87.3795 11 87.5715 10.808 87.5715 10.52V9.848C87.5715 9.56 87.4275 9.368 86.9475 9.368H84.0675V4.712C84.0675 4.04 83.8755 3.608 83.3955 3.608H83.2035C82.4835 3.608 82.4835 5.096 80.5155 7.064C78.6915 8.792 77.3475 9.368 75.7635 9.368H75.7155C75.2835 9.368 75.1875 9.56 75.1875 9.752V10.52C75.1875 10.808 75.3315 11 75.8115 11H76.7235V23.24C76.7235 26.024 78.1635 29 82.1475 29C85.0275 29 86.3235 27.656 87.7635 25.832C88.1475 25.304 87.7155 24.92 87.3315 25.016C86.8515 25.16 86.3235 25.208 85.6995 25.208C84.6915 25.208 84.0195 24.488 84.0195 22.856V11H86.9475ZM98.982 8.888C93.03 8.888 88.47 13.448 88.47 19.16C88.47 24.824 93.03 29.384 98.982 29.384C104.886 29.384 109.542 24.824 109.542 19.16C109.542 13.448 104.886 8.888 98.982 8.888ZM100.47 27.56C99.222 27.8 97.494 25.4 96.39 19.304C95.334 13.256 96.198 10.952 97.542 10.712C98.886 10.472 100.47 12.344 101.526 18.392C102.582 24.536 101.766 27.368 100.47 27.56ZM121.349 12.728C122.693 12.728 123.605 13.688 123.605 15.032V26.984C123.605 27.656 123.317 27.848 122.645 28.088C122.213 28.184 122.021 28.424 122.021 28.664C122.021 28.904 122.261 29.096 122.645 29.096C123.269 29.096 124.901 29 127.253 29C129.605 29 131.237 29.096 131.909 29.096C132.245 29.096 132.485 28.904 132.485 28.664C132.485 28.424 132.293 28.184 131.861 28.088C131.189 27.848 130.901 27.656 130.901 26.984V14.648C130.901 11.864 128.933 8.888 124.853 8.888C122.069 8.888 120.053 10.76 119.141 12.824C118.373 9.992 118.229 9.368 117.701 9.368C117.029 9.368 117.221 9.8 115.157 10.52C113.333 11.24 111.845 11.528 110.885 11.672C110.501 11.72 110.261 11.912 110.261 12.152C110.261 12.392 110.453 12.632 110.885 12.728C111.317 12.872 111.845 13.208 111.845 13.832V26.984C111.845 27.656 111.557 27.848 110.885 28.088C110.453 28.184 110.261 28.424 110.261 28.664C110.261 28.904 110.501 29.096 110.885 29.096C111.509 29.096 113.141 29 115.493 29C117.845 29 119.477 29.096 120.149 29.096C120.485 29.096 120.725 28.904 120.725 28.664C120.725 28.424 120.533 28.184 120.101 28.088C119.429 27.848 119.141 27.656 119.141 26.984V15.032C119.141 13.688 120.053 12.728 121.349 12.728ZM166.768 28.04C165.712 27.752 165.184 26.888 163.456 23.576L160.816 18.536C164.464 17.144 166 14.648 166 11.816C166 7.256 162.352 3.848 152.656 3.848H147.424C145.072 3.848 143.296 3.752 142.624 3.752C142.288 3.752 142.048 3.944 142.048 4.184C142.048 4.424 142.24 4.664 142.672 4.76C143.344 4.952 143.632 5.192 143.632 5.864V26.984C143.632 27.656 143.344 27.896 142.672 28.04C142.24 28.184 142.048 28.376 142.048 28.664C142.048 28.904 142.288 29.096 142.624 29.096C143.296 29.096 145.072 29 147.424 29H147.472C149.824 29 151.552 29.096 152.176 29.096C152.56 29.096 152.8 28.904 152.8 28.664C152.8 28.376 152.608 28.184 152.176 28.04C151.504 27.896 151.216 27.656 151.216 26.984V19.784H152.896C154.768 23.288 156.352 26.36 156.64 26.792C157.024 27.56 157.264 27.944 156.928 28.04C156.448 28.184 156.256 28.376 156.256 28.664C156.256 28.904 156.496 29.096 156.88 29.096C157.504 29.096 159.568 29 161.92 29C164.32 29 166.192 29.096 166.816 29.096C167.2 29.096 167.44 28.904 167.44 28.664C167.44 28.376 167.2 28.184 166.768 28.04ZM151.216 7.112C151.216 6.008 151.552 5.624 152.368 5.624H152.992C156.112 5.624 158.416 8.216 158.416 11.816C158.416 15.272 156.112 17.96 152.992 17.96H151.216V7.112ZM177.451 8.888C171.355 8.888 166.939 13.112 166.939 19.352C166.939 24.68 170.683 29.432 176.827 29.432C181.243 29.432 184.603 26.456 185.227 25.256C185.515 24.632 184.939 24.248 184.603 24.44C183.547 25.064 182.443 25.544 180.571 25.544C178.027 25.544 175.051 22.904 174.379 18.488H185.179C185.611 18.488 185.803 18.296 185.803 18.008C185.803 12.488 182.731 8.888 177.451 8.888ZM174.235 16.568C174.235 13.208 175.531 10.52 176.827 10.52C178.123 10.52 178.651 12.296 178.651 14.792C178.651 16.808 178.027 16.856 177.643 16.856H174.235V16.568ZM196.6 8.888C191.32 8.888 187.048 12.296 187.048 16.472C187.048 19.064 188.632 21.32 191.128 22.712C189.016 23.384 187.192 25.064 187.192 26.936C187.192 28.808 188.68 30.2 190.84 30.488C189.688 30.872 188.824 31.4 188.824 32.12C188.824 33.368 191.848 34.28 195.448 34.28C201.4 34.28 206.68 32.072 206.68 28.52C206.68 26.168 204.904 24.872 201.736 24.872C198.808 24.872 195.736 25.88 192.472 25.88C191.464 25.88 190.792 25.352 190.792 24.824C190.792 24.44 191.272 23.768 192.328 23.288C193.624 23.768 195.064 24.056 196.6 24.056C201.88 24.056 206.152 20.648 206.152 16.472C206.152 13.16 203.416 10.28 199.624 9.272C200.248 7.928 201.88 7.88 203.656 8.936C205.336 9.896 207.304 9.416 207.304 7.4C207.304 6.152 206.008 5 204.088 5C201.784 5 199.432 6.92 198.568 9.08C197.944 8.936 197.272 8.888 196.6 8.888ZM197.848 22.664C196.792 22.664 195.256 21.08 194.344 16.568C193.48 12.152 194.344 10.28 195.4 10.28C196.552 10.28 197.944 11.48 198.808 15.944C199.72 20.456 198.952 22.664 197.848 22.664ZM196.168 33.08C193.672 33.08 192.184 32.408 192.184 31.688C192.184 31.016 193.384 30.488 195.64 30.344C195.736 30.344 195.832 30.296 195.928 30.296C197.128 30.152 198.232 30.056 199.24 30.056C200.92 30.056 201.784 30.632 201.784 31.256C201.784 32.264 199.144 33.08 196.168 33.08ZM220.114 13.256V23.864C219.874 24.92 219.058 25.544 217.906 25.544C216.562 25.544 215.698 24.68 215.698 23.288V10.472C215.698 9.848 215.65 9.368 215.17 9.368C214.498 9.368 214.114 9.848 212.05 10.424C210.178 11 208.546 11.096 207.442 11.096C207.058 11.096 206.818 11.336 206.818 11.576C206.818 11.864 207.01 12.056 207.442 12.2C207.874 12.296 208.402 12.632 208.402 13.256V23.72C208.402 26.456 210.37 29.432 214.45 29.432C217.33 29.432 219.442 27.368 220.258 25.208C221.026 28.04 223.858 29.192 226.498 29.192C226.93 29.192 228.082 29.144 228.466 29C228.802 28.904 229.042 28.712 229.042 28.424C229.042 28.232 228.898 28.088 228.322 27.944C227.458 27.8 227.41 27.368 227.41 26.024V10.472C227.41 9.848 227.41 9.368 226.882 9.368C226.21 9.368 225.826 9.848 223.762 10.424C221.89 11 220.258 11.096 219.154 11.096C218.77 11.096 218.578 11.336 218.578 11.576C218.578 11.864 218.722 12.056 219.202 12.2C219.586 12.296 220.114 12.632 220.114 13.256ZM238.626 4.232C238.626 3.608 238.578 3.128 238.05 3.128C237.522 3.128 236.946 3.848 234.93 4.712C233.154 5.432 231.474 5.768 230.322 5.912C229.938 5.96 229.746 6.152 229.746 6.392C229.746 6.68 229.89 6.872 230.37 7.016C231.042 7.208 231.33 7.4 231.33 8.072V26.984C231.33 27.656 231.042 27.848 230.37 28.088C229.89 28.184 229.746 28.424 229.746 28.664C229.746 28.904 229.938 29.096 230.322 29.096C230.946 29.096 232.578 29 234.93 29C237.33 29 238.962 29.096 239.586 29.096C239.97 29.096 240.21 28.904 240.21 28.664C240.21 28.424 240.018 28.184 239.538 28.088C238.866 27.848 238.626 27.656 238.626 26.984V4.232ZM241.189 24.2C241.189 26.936 243.157 29.432 247.237 29.432C249.973 29.432 252.085 27.704 252.997 25.16C253.813 28.04 256.597 29.192 259.285 29.192C259.765 29.192 260.869 29.144 261.253 29C261.637 28.904 261.877 28.712 261.877 28.424C261.877 28.232 261.685 28.088 261.109 27.944C260.293 27.8 260.245 27.368 260.245 26.024V17C260.245 11.528 256.549 8.888 250.741 8.888C247.141 8.888 243.493 10.712 242.773 13.352C242.245 15.32 243.349 17.144 245.653 17.144C247.477 17.144 248.821 15.896 248.821 13.448C248.821 11.912 249.397 10.52 250.837 10.52C252.421 10.52 252.997 12.344 252.997 17.048V17.48C246.085 17.528 241.189 20.312 241.189 24.2ZM252.997 19.832C252.949 19.88 252.949 19.928 252.949 20.024V22.28C252.949 23.624 252.037 25.544 250.693 25.544C249.397 25.544 248.485 24.2 248.485 22.808C248.485 20.456 250.069 18.728 252.997 18.584V19.832ZM271.485 26.984V16.088C272.733 14.84 273.933 13.976 274.653 13.976C275.421 13.976 275.805 14.312 276.573 15.32C277.677 16.664 278.061 17 278.589 17C279.693 17 281.805 15.896 281.805 13.16C281.805 10.808 280.269 8.888 278.013 8.888C275.469 8.888 273.741 11.096 271.485 14.264V13.064C271.485 10.088 271.485 9.368 270.957 9.368C270.333 9.368 269.517 9.8 267.501 10.52C265.629 11.24 264.141 11.528 263.181 11.672C262.845 11.72 262.605 11.912 262.605 12.152C262.605 12.392 262.797 12.632 263.229 12.728C263.661 12.872 264.189 13.208 264.189 13.832V26.984C264.189 27.656 263.901 27.848 263.229 28.088C262.797 28.184 262.605 28.424 262.605 28.664C262.605 28.904 262.845 29.096 263.181 29.096C263.853 29.096 265.485 29 267.837 29C270.189 29 271.821 29.096 272.445 29.096C272.829 29.096 273.069 28.904 273.069 28.664C273.069 28.424 272.877 28.184 272.445 28.088C271.725 27.848 271.485 27.656 271.485 26.984Z" fill="white"/>
</svg>
