<svg width="506" height="37" viewBox="0 0 506 37" fill="none" xmlns="http://www.w3.org/2000/svg">
<path d="M0.4 35H11.48V1.4H0.4V35ZM14.275 35H25.075V16.84H26.075L37.515 35H49.955V1.4H39.155V19.56H38.155L26.995 1.4H14.275V35ZM87.7994 1.4H52.5594V10.64H64.6394V35H75.7194V10.64H87.7994V1.4ZM90.4 35H120.68V26.12H101.48V21.84H119.96V14.56H101.48V10.28H120.68V1.4H90.4V35ZM159.232 16.44H141.152V22.2H148.552C147.432 26.12 143.232 26.56 141.592 26.56C137.032 26.56 133.472 23.28 133.472 18.2C133.472 13.12 136.952 9.84 141.912 9.84C145.192 9.84 147.392 11.48 148.072 13.16H159.072C157.752 4.12 149.632 0.279999 141.672 0.279999C129.992 0.279999 122.472 7.44 122.472 18.2C122.472 28.96 130.392 36.12 140.712 36.12C146.632 36.12 150.832 33.76 153.152 30.56L153.312 35H159.232V16.44ZM197.132 35L191.132 23.96C193.972 21.96 196.013 18.76 196.013 14.24C196.013 5.4 190.773 1.4 181.453 1.4H162.213V35H173.293V26.32H181.693L186.253 35H197.132ZM173.293 10.6H180.693C183.493 10.6 184.932 11.96 184.932 14.32C184.932 16.68 183.493 18.04 180.693 18.04H173.293V10.6ZM226.328 35H237.768L225.408 1.4H209.888L197.528 35H208.968L210.448 30.56H224.848L226.328 35ZM213.168 22.36L216.688 11.8H218.608L222.128 22.36H213.168ZM239.369 35H268.369V25.76H250.449V1.4H239.369V35ZM298.617 36.12C306.898 36.12 315.217 32.52 316.338 21.08H305.778C304.858 24.84 302.258 26.56 298.617 26.56C294.217 26.56 290.738 23.28 290.738 18.2C290.738 13.12 294.217 9.84 298.617 9.84C302.258 9.84 304.858 11.56 305.778 15.24H316.338C315.217 3.88 306.818 0.279999 298.617 0.279999C287.297 0.279999 279.738 7.44 279.738 18.2C279.738 28.96 287.297 36.12 298.617 36.12ZM318.541 35H329.621V23.2H347.901V15.2H329.621V10.64H348.741V1.4H318.541V35ZM391.307 17.68V17.04C393.667 15.76 395.627 14.12 395.627 10.32C395.627 5.88 392.907 1.4 382.747 1.4H361.947V35H382.187C392.707 35 396.507 30.92 396.507 25.52C396.507 21.68 394.547 19.32 391.307 17.68ZM381.587 9.88C384.187 9.88 385.027 11.16 385.027 12.44C385.027 13.64 384.187 14.92 381.587 14.92H373.027V9.88H381.587ZM381.827 26.52H373.027V20.96H381.827C384.427 20.96 385.307 22.4 385.307 23.68C385.307 24.92 384.427 26.52 381.827 26.52ZM416.903 36.12C428.463 36.12 435.943 28.96 435.943 18.2C435.943 7.44 428.463 0.279999 416.903 0.279999C405.342 0.279999 397.863 7.44 397.863 18.2C397.863 28.96 405.342 36.12 416.903 36.12ZM416.903 26.56C412.503 26.56 408.863 23.52 408.863 18.2C408.863 12.88 412.503 9.84 416.903 9.84C421.302 9.84 424.943 12.88 424.943 18.2C424.943 23.52 421.302 26.56 416.903 26.56ZM438.166 35H467.166V25.76H449.246V1.4H438.166V35ZM486.827 1.4H469.947V35H486.827C500.507 35 505.307 27.84 505.307 18.2C505.307 8.52 500.507 1.4 486.827 1.4ZM486.827 25.72H481.067V10.68H486.827C491.147 10.68 494.187 12.8 494.187 18.2C494.187 23.56 491.147 25.72 486.827 25.72Z" fill="white"/>
</svg>
