<svg width="410" height="46" viewBox="0 0 410 46" fill="none" xmlns="http://www.w3.org/2000/svg">
<path d="M4.352 23.328H7.232L17.936 35.856C17.984 35.904 18.128 36 18.224 36H22.352C22.88 36 23.024 35.76 22.64 35.328L11.792 23.04C18.656 22.704 23.36 19.632 23.36 12.288C23.36 5.856 18.992 2.4 11.6 2.4H0.944C0.704 2.4 0.512 2.544 0.512 2.832V35.568C0.512 35.856 0.704 36 0.944 36H3.92C4.16 36 4.352 35.856 4.352 35.568V23.328ZM4.352 5.952H11.312C16.784 5.952 19.328 8.016 19.328 12.432C19.328 16.944 17.264 19.776 10.736 19.776H4.352V5.952ZM36.7288 14.304C33.7528 14.304 31.0168 15.168 28.5688 16.896C28.3768 17.04 28.3288 17.232 28.4728 17.472L29.8168 19.392C30.0088 19.632 30.2008 19.632 30.4408 19.488C32.2168 18.144 34.2808 17.472 36.6328 17.472C39.8008 17.472 41.7688 18.912 41.7688 22.128V23.52L34.3288 24.384C29.8168 24.912 27.1768 27.072 27.1768 30.624C27.1768 34.272 29.4808 36.576 34.0888 36.576C37.3528 36.576 40.4728 35.136 42.2488 32.64L42.6328 35.664C42.6808 35.856 42.8248 36 43.0648 36H44.9368C45.2248 36 45.3688 35.856 45.3688 35.568V22.368C45.3688 17.088 42.0088 14.304 36.7288 14.304ZM41.7688 26.208V27.552C41.7688 31.536 38.3128 33.696 34.8088 33.696C32.2168 33.696 30.9208 32.64 30.9208 30.528C30.9208 28.128 32.4568 27.312 35.3848 26.976L41.7688 26.208ZM63.8521 14.304C60.3001 14.304 57.1801 16.08 55.6441 19.392L55.0201 15.216C54.9721 15.024 54.8281 14.88 54.5881 14.88H52.6681C52.4281 14.88 52.2841 15.024 52.2841 15.312V44.688C52.2841 44.976 52.4281 45.12 52.6681 45.12H55.5001C55.7881 45.12 55.9321 44.976 55.9321 44.688V32.016C57.5161 34.992 60.4441 36.576 63.8521 36.576C69.8041 36.576 74.2201 31.872 74.2201 25.488C74.2201 19.056 69.8041 14.304 63.8521 14.304ZM63.1801 17.52C67.7401 17.52 70.4761 20.928 70.4761 25.488C70.4761 30 67.7401 33.36 63.1801 33.36C58.9561 33.36 55.8361 30.048 55.8361 25.44C55.8361 20.784 58.9561 17.52 63.1801 17.52ZM89.6375 14.304C83.2535 14.304 78.6455 19.056 78.6455 25.44C78.6455 31.776 83.2535 36.576 89.6375 36.576C96.0695 36.576 100.63 31.776 100.63 25.44C100.63 19.056 96.0215 14.304 89.6375 14.304ZM89.6375 17.472C94.0055 17.472 96.8855 20.688 96.8855 25.392C96.8855 30.144 94.0055 33.408 89.6375 33.408C85.3175 33.408 82.4375 30.144 82.4375 25.392C82.4375 20.688 85.3175 17.472 89.6375 17.472ZM106.284 15.312V35.568C106.284 35.856 106.428 36 106.668 36H109.5C109.788 36 109.932 35.856 109.932 35.568V25.92C109.932 20.688 113.148 17.856 118.188 18C118.476 18 118.62 17.856 118.62 17.568V14.736C118.62 14.496 118.476 14.304 118.236 14.304C114.06 14.496 111.132 16.512 109.596 19.536L109.02 15.216C108.972 15.024 108.828 14.88 108.588 14.88H106.668C106.428 14.88 106.284 15.024 106.284 15.312ZM137.153 2.832V35.568C137.153 35.856 137.345 36 137.585 36H149.297C156.641 36 160.769 32.688 160.769 26.928C160.769 22.608 158.369 19.584 154.145 18.528C157.937 16.848 159.569 13.872 159.569 10.512C159.569 5.328 155.921 2.4 148.529 2.4H137.585C137.345 2.4 137.153 2.544 137.153 2.832ZM140.993 6.048H148.001C153.617 6.048 155.537 7.728 155.537 11.184C155.537 15.12 152.753 17.184 148.289 17.184H140.993V6.048ZM140.993 20.688H148.529C153.521 20.688 156.737 22.224 156.737 26.544C156.737 30.384 154.481 32.352 148.961 32.352H140.993V20.688ZM176.872 14.304C170.488 14.304 165.88 19.056 165.88 25.44C165.88 31.776 170.488 36.576 176.872 36.576C183.304 36.576 187.864 31.776 187.864 25.44C187.864 19.056 183.256 14.304 176.872 14.304ZM176.872 17.472C181.24 17.472 184.12 20.688 184.12 25.392C184.12 30.144 181.24 33.408 176.872 33.408C172.552 33.408 169.672 30.144 169.672 25.392C169.672 20.688 172.552 17.472 176.872 17.472ZM203.263 14.304C196.879 14.304 192.271 19.056 192.271 25.44C192.271 31.776 196.879 36.576 203.263 36.576C209.695 36.576 214.255 31.776 214.255 25.44C214.255 19.056 209.647 14.304 203.263 14.304ZM203.263 17.472C207.631 17.472 210.511 20.688 210.511 25.392C210.511 30.144 207.631 33.408 203.263 33.408C198.943 33.408 196.062 30.144 196.062 25.392C196.062 20.688 198.943 17.472 203.263 17.472ZM220.149 0.912V35.568C220.149 35.856 220.293 36 220.533 36H223.365C223.653 36 223.797 35.856 223.797 35.568V25.68L234.309 35.856C234.453 36 234.549 36 234.693 36H239.253C239.493 36 239.637 35.808 239.397 35.568L227.829 24.72L238.725 15.36C238.965 15.168 238.917 14.88 238.581 14.88H234.261C234.117 14.88 234.021 14.88 233.877 15.024L223.797 24.288V0.912C223.797 0.623998 223.653 0.48 223.365 0.48H220.533C220.293 0.48 220.149 0.623998 220.149 0.912ZM261.93 23.328H264.81L275.514 35.856C275.562 35.904 275.706 36 275.802 36H279.93C280.458 36 280.602 35.76 280.218 35.328L269.37 23.04C276.234 22.704 280.938 19.632 280.938 12.288C280.938 5.856 276.57 2.4 269.178 2.4H258.522C258.282 2.4 258.09 2.544 258.09 2.832V35.568C258.09 35.856 258.282 36 258.522 36H261.498C261.738 36 261.93 35.856 261.93 35.568V23.328ZM261.93 5.952H268.89C274.362 5.952 276.906 8.016 276.906 12.432C276.906 16.944 274.842 19.776 268.314 19.776H261.93V5.952ZM304.889 24.288C305.033 18.432 300.665 14.304 294.617 14.304C288.089 14.304 283.817 19.056 283.817 25.44C283.817 31.824 288.185 36.576 294.761 36.576C298.361 36.576 301.433 34.944 303.449 32.544C303.593 32.352 303.545 32.112 303.401 31.968L301.625 30.336C301.385 30.144 301.145 30.144 301.001 30.336C299.513 32.256 297.449 33.408 294.761 33.408C290.729 33.408 287.849 30.624 287.657 26.688H304.121C304.601 26.688 304.841 26.448 304.889 24.288ZM287.657 23.808C287.849 20.064 290.633 17.472 294.569 17.472C298.697 17.472 301.241 20.208 301.337 23.808H287.657ZM330.741 17.76V15.312C330.741 15.024 330.597 14.88 330.309 14.88H322.629C321.333 14.448 319.941 14.304 318.693 14.304C312.981 14.304 310.053 17.664 310.053 22.176C310.053 24.624 310.965 26.592 312.645 27.984C311.253 28.848 310.485 30.096 310.485 31.488C310.485 32.4 310.773 33.216 311.397 33.936C308.853 35.184 307.509 37.152 307.509 39.36C307.509 43.152 311.205 45.456 318.693 45.456C325.989 45.456 330.261 42.864 330.261 38.88C330.261 36 328.053 34.272 323.061 33.648L316.581 32.832C314.709 32.592 313.989 31.824 313.989 30.672C313.989 30.096 314.277 29.568 314.757 29.184C316.101 29.76 317.685 30.048 319.461 30.048C324.549 30.048 328.005 27.408 328.005 23.184C328.005 20.928 327.045 19.296 325.509 18.24L330.309 18.192C330.597 18.192 330.741 18 330.741 17.76ZM319.173 17.328C322.437 17.328 324.453 19.2 324.453 22.176C324.453 25.248 322.341 27.024 319.077 27.024C315.861 27.024 313.701 25.44 313.701 22.224C313.701 19.2 315.669 17.328 319.173 17.328ZM313.701 35.472C314.421 35.76 315.237 35.952 316.197 36.096L322.725 36.96C325.365 37.344 326.421 37.92 326.421 39.408C326.421 41.28 323.829 42.432 318.837 42.432C313.941 42.432 311.397 41.28 311.397 38.88C311.397 37.344 312.357 36.144 313.701 35.472ZM354.373 14.88H351.589C351.301 14.88 351.157 15.024 351.157 15.312V25.68C351.157 30.048 348.421 33.12 344.389 33.12C340.501 33.12 338.725 30.96 338.725 26.928V15.312C338.725 15.024 338.581 14.88 338.293 14.88H335.461C335.221 14.88 335.077 15.024 335.077 15.312V27.12C335.077 33.12 338.101 36.576 343.525 36.576C347.125 36.576 350.005 34.704 351.493 31.632L352.069 35.664C352.117 35.856 352.261 36 352.501 36H354.373C354.661 36 354.805 35.856 354.805 35.568V15.312C354.805 15.024 354.661 14.88 354.373 14.88ZM365.642 35.568V0.912C365.642 0.623998 365.498 0.48 365.21 0.48H362.378C362.138 0.48 361.994 0.623998 361.994 0.912V35.568C361.994 35.856 362.138 36 362.378 36H365.21C365.498 36 365.642 35.856 365.642 35.568ZM381.166 14.304C378.19 14.304 375.454 15.168 373.006 16.896C372.814 17.04 372.766 17.232 372.91 17.472L374.254 19.392C374.446 19.632 374.638 19.632 374.878 19.488C376.654 18.144 378.718 17.472 381.07 17.472C384.238 17.472 386.206 18.912 386.206 22.128V23.52L378.766 24.384C374.254 24.912 371.614 27.072 371.614 30.624C371.614 34.272 373.918 36.576 378.526 36.576C381.79 36.576 384.91 35.136 386.686 32.64L387.07 35.664C387.118 35.856 387.262 36 387.502 36H389.374C389.662 36 389.806 35.856 389.806 35.568V22.368C389.806 17.088 386.446 14.304 381.166 14.304ZM386.206 26.208V27.552C386.206 31.536 382.75 33.696 379.246 33.696C376.654 33.696 375.358 32.64 375.358 30.528C375.358 28.128 376.894 27.312 379.822 26.976L386.206 26.208ZM396.722 15.312V35.568C396.722 35.856 396.866 36 397.106 36H399.938C400.226 36 400.37 35.856 400.37 35.568V25.92C400.37 20.688 403.586 17.856 408.626 18C408.914 18 409.058 17.856 409.058 17.568V14.736C409.058 14.496 408.914 14.304 408.674 14.304C404.498 14.496 401.57 16.512 400.034 19.536L399.458 15.216C399.41 15.024 399.266 14.88 399.026 14.88H397.106C396.866 14.88 396.722 15.024 396.722 15.312Z" fill="white"/>
</svg>
