<svg width="670" height="300" viewBox="0 0 670 300" fill="none" xmlns="http://www.w3.org/2000/svg">
<rect width="670" height="300" fill="white"/>
<path d="M244.73 194.757L227.37 168.897L220.274 175.797V194.757H200V104H220.274V156.825L242.829 130.232H264.244L240.295 158.056L266.271 194.757H244.73Z" fill="black"/>
<path d="M442.756 196C437.121 196.005 431.528 195.059 426.22 193.203C421.097 191.482 416.41 188.705 412.472 185.06L419.568 172.627C423.156 175.313 427.099 177.508 431.289 179.154C434.732 180.529 438.405 181.266 442.123 181.33C444.19 181.422 446.251 181.039 448.141 180.211C448.832 179.901 449.412 179.396 449.807 178.76C450.203 178.124 450.395 177.387 450.359 176.643C450.389 176.103 450.283 175.565 450.051 175.075C449.819 174.585 449.468 174.158 449.029 173.833C447.838 173.023 446.537 172.382 445.164 171.931C443.474 171.326 441.362 170.692 438.828 170.029C433.76 168.313 429.536 166.701 426.157 165.192C423.176 163.979 420.56 162.041 418.554 159.56C416.78 157.001 415.892 153.95 416.02 150.858C415.93 146.825 417.126 142.865 419.441 139.532C421.853 136.196 425.166 133.587 429.008 131.998C433.68 130.088 438.71 129.168 443.77 129.3C448.338 129.279 452.88 129.972 457.227 131.351C461.802 132.865 465.993 135.324 469.518 138.562L461.535 150.87C458.414 148.622 455.033 146.744 451.461 145.276C448.705 144.166 445.76 143.575 442.782 143.535C441.456 143.521 440.134 143.684 438.853 144.02C437.774 144.289 436.789 144.839 436.002 145.611C435.627 146.024 435.339 146.506 435.154 147.029C434.969 147.552 434.892 148.105 434.925 148.657C434.891 149.715 435.277 150.745 436.002 151.529C436.966 152.44 438.14 153.11 439.424 153.481C440.982 154.003 442.908 154.6 445.189 155.246C449.922 156.576 454.576 158.166 459.127 160.008C462.348 161.219 465.188 163.238 467.364 165.864C469.288 168.576 470.246 171.837 470.088 175.138C470.215 178.082 469.613 181.012 468.333 183.678C467.053 186.343 465.133 188.665 462.739 190.443C457.78 194.147 451.119 196 442.756 196Z" fill="black"/>
<path d="M284.467 176.108C284.466 167.95 287.493 160.071 292.983 153.943C298.472 147.816 306.048 143.859 314.295 142.814V128.616C313.878 128.532 313.453 128.491 313.028 128.492H311C306.89 128.62 302.915 129.963 299.596 132.346C295.792 135.022 292.705 138.563 290.599 142.665V130.232H272.099V194.757H290.27C286.488 189.245 284.467 182.752 284.467 176.108Z" fill="black"/>
<path d="M386.116 158.056L410.065 130.232H388.65L366.095 156.825V104H345.821V155.769C350.13 161.339 352.559 168.09 352.768 175.079C352.977 182.069 350.956 188.949 346.987 194.757H366.095V175.797L373.191 168.897L390.551 194.757H412.092L386.116 158.056Z" fill="black"/>
<path d="M318.628 195.279C314.752 195.279 310.962 194.15 307.74 192.036C304.517 189.922 302.006 186.917 300.525 183.402C299.044 179.887 298.659 176.02 299.419 172.29C300.179 168.561 302.05 165.136 304.794 162.45C307.539 159.764 311.035 157.937 314.838 157.201C318.641 156.465 322.582 156.853 326.16 158.315C329.739 159.778 332.795 162.249 334.941 165.416C337.088 168.584 338.228 172.304 338.218 176.108C338.202 181.196 336.131 186.07 332.459 189.664C328.787 193.257 323.814 195.276 318.628 195.279Z" fill="#55909C"/>
<path d="M318.629 187.82C325.249 187.82 330.616 182.554 330.616 176.059C330.616 169.563 325.249 164.297 318.629 164.297C312.008 164.297 306.642 169.563 306.642 176.059C306.642 182.554 312.008 187.82 318.629 187.82Z" fill="#55909C"/>
</svg>
